REM DIRINDEX 1\5,1\2\6,1\2\7,1\3\8,1\3\9,1\4\10,1\4\11,1\4\12
REM DIRNAME cjc026,folder01,folder02,folder03,folder04,folder05,folder06,folder07,folder08,folder09,folder10,folder11
TITLE ""
FILE "EJE_DB3000_5th_1A_11.mp3" MP3
  TRACK 01 AUDIO
    TITLE "0:"
    INDEX 01 00:00:00
  TRACK 02 AUDIO
    TITLE "10:cjc026_07155"
    INDEX 01 00:00:08
  TRACK 03 AUDIO
    TITLE "0:"
    INDEX 01 00:01:24
  TRACK 04 AUDIO
    TITLE "11:cjc026_07156"
    INDEX 01 00:01:60
  TRACK 05 AUDIO
    TITLE "0:"
    INDEX 01 00:04:29
  TRACK 06 AUDIO
    TITLE "12:cjc026_07157"
    INDEX 01 00:04:64
  TRACK 07 AUDIO
    TITLE "0:"
    INDEX 01 00:06:06
  TRACK 08 AUDIO
    TITLE "10:cjc026_07158"
    INDEX 01 00:06:44
  TRACK 09 AUDIO
    TITLE "0:"
    INDEX 01 00:07:52
  TRACK 10 AUDIO
    TITLE "11:cjc026_07159"
    INDEX 01 00:08:15
  TRACK 11 AUDIO
    TITLE "0:"
    INDEX 01 00:09:70
  TRACK 12 AUDIO
    TITLE "12:cjc026_07160"
    INDEX 01 00:10:27
  TRACK 13 AUDIO
    TITLE "0:"
    INDEX 01 00:11:41
  TRACK 14 AUDIO
    TITLE "10:cjc026_07161"
    INDEX 01 00:12:01
  TRACK 15 AUDIO
    TITLE "0:"
    INDEX 01 00:13:13
  TRACK 16 AUDIO
    TITLE "11:cjc026_07162"
    INDEX 01 00:13:51
  TRACK 17 AUDIO
    TITLE "0:"
    INDEX 01 00:14:70
  TRACK 18 AUDIO
    TITLE "12:cjc026_07163"
    INDEX 01 00:15:30
  TRACK 19 AUDIO
    TITLE "0:"
    INDEX 01 00:16:41
  TRACK 20 AUDIO
    TITLE "10:cjc026_07164"
    INDEX 01 00:17:02
  TRACK 21 AUDIO
    TITLE "0:"
    INDEX 01 00:18:21
  TRACK 22 AUDIO
    TITLE "11:cjc026_07165"
    INDEX 01 00:18:54
  TRACK 23 AUDIO
    TITLE "0:"
    INDEX 01 00:20:14
  TRACK 24 AUDIO
    TITLE "12:cjc026_07166"
    INDEX 01 00:20:49
  TRACK 25 AUDIO
    TITLE "0:"
    INDEX 01 00:21:66
  TRACK 26 AUDIO
    TITLE "10:cjc026_07167"
    INDEX 01 00:22:29
  TRACK 27 AUDIO
    TITLE "0:"
    INDEX 01 00:23:21
  TRACK 28 AUDIO
    TITLE "11:cjc026_07168"
    INDEX 01 00:23:67
  TRACK 29 AUDIO
    TITLE "0:"
    INDEX 01 00:25:23
  TRACK 30 AUDIO
    TITLE "12:cjc026_07169"
    INDEX 01 00:25:60
  TRACK 31 AUDIO
    TITLE "0:"
    INDEX 01 00:26:53
  TRACK 32 AUDIO
    TITLE "10:cjc026_07170"
    INDEX 01 00:27:29
  TRACK 33 AUDIO
    TITLE "0:"
    INDEX 01 00:28:35
  TRACK 34 AUDIO
    TITLE "11:cjc026_07171"
    INDEX 01 00:28:73
  TRACK 35 AUDIO
    TITLE "0:"
    INDEX 01 00:30:36
  TRACK 36 AUDIO
    TITLE "12:cjc026_07172"
    INDEX 01 00:30:74
  TRACK 37 AUDIO
    TITLE "0:"
    INDEX 01 00:32:08
  TRACK 38 AUDIO
    TITLE "10:cjc026_07173"
    INDEX 01 00:32:46
  TRACK 39 AUDIO
    TITLE "0:"
    INDEX 01 00:33:68
  TRACK 40 AUDIO
    TITLE "11:cjc026_07174"
    INDEX 01 00:34:28
  TRACK 41 AUDIO
    TITLE "0:"
    INDEX 01 00:36:05
  TRACK 42 AUDIO
    TITLE "12:cjc026_07175"
    INDEX 01 00:36:40
  TRACK 43 AUDIO
    TITLE "0:"
    INDEX 01 00:37:62
  TRACK 44 AUDIO
    TITLE "10:cjc026_07176"
    INDEX 01 00:38:22
  TRACK 45 AUDIO
    TITLE "0:"
    INDEX 01 00:39:34
  TRACK 46 AUDIO
    TITLE "11:cjc026_07177"
    INDEX 01 00:39:74
  TRACK 47 AUDIO
    TITLE "0:"
    INDEX 01 00:41:54
  TRACK 48 AUDIO
    TITLE "12:cjc026_07178"
    INDEX 01 00:42:14
  TRACK 49 AUDIO
    TITLE "0:"
    INDEX 01 00:43:23
  TRACK 50 AUDIO
    TITLE "10:cjc026_07179"
    INDEX 01 00:43:60
  TRACK 51 AUDIO
    TITLE "0:"
    INDEX 01 00:45:00
  TRACK 52 AUDIO
    TITLE "11:cjc026_07180"
    INDEX 01 00:45:35
  TRACK 53 AUDIO
    TITLE "0:"
    INDEX 01 00:46:68
  TRACK 54 AUDIO
    TITLE "12:cjc026_07181"
    INDEX 01 00:47:28
  TRACK 55 AUDIO
    TITLE "0:"
    INDEX 01 00:48:39
  TRACK 56 AUDIO
    TITLE "10:cjc026_07182"
    INDEX 01 00:49:02
  TRACK 57 AUDIO
    TITLE "0:"
    INDEX 01 00:50:24
  TRACK 58 AUDIO
    TITLE "11:cjc026_07183"
    INDEX 01 00:50:59
  TRACK 59 AUDIO
    TITLE "0:"
    INDEX 01 00:52:31
  TRACK 60 AUDIO
    TITLE "12:cjc026_07184"
    INDEX 01 00:52:66
  TRACK 61 AUDIO
    TITLE "0:"
    INDEX 01 00:54:13
  TRACK 62 AUDIO
    TITLE "10:cjc026_07185"
    INDEX 01 00:54:48
  TRACK 63 AUDIO
    TITLE "0:"
    INDEX 01 00:55:57
  TRACK 64 AUDIO
    TITLE "11:cjc026_07186"
    INDEX 01 00:56:17
  TRACK 65 AUDIO
    TITLE "0:"
    INDEX 01 00:57:55
  TRACK 66 AUDIO
    TITLE "12:cjc026_07187"
    INDEX 01 00:58:15
  TRACK 67 AUDIO
    TITLE "0:"
    INDEX 01 00:59:24
  TRACK 68 AUDIO
    TITLE "10:cjc026_07188"
    INDEX 01 00:59:59
  TRACK 69 AUDIO
    TITLE "0:"
    INDEX 01 01:01:23
  TRACK 70 AUDIO
    TITLE "11:cjc026_07189"
    INDEX 01 01:01:58
  TRACK 71 AUDIO
    TITLE "0:"
    INDEX 01 01:03:08
  TRACK 72 AUDIO
    TITLE "12:cjc026_07190"
    INDEX 01 01:03:45
  TRACK 73 AUDIO
    TITLE "0:"
    INDEX 01 01:05:06
  TRACK 74 AUDIO
    TITLE "10:cjc026_07191"
    INDEX 01 01:05:41
  TRACK 75 AUDIO
    TITLE "0:"
    INDEX 01 01:06:47
  TRACK 76 AUDIO
    TITLE "11:cjc026_07192"
    INDEX 01 01:07:10
  TRACK 77 AUDIO
    TITLE "0:"
    INDEX 01 01:08:35
  TRACK 78 AUDIO
    TITLE "12:cjc026_07193"
    INDEX 01 01:08:70
  TRACK 79 AUDIO
    TITLE "0:"
    INDEX 01 01:10:01
